<svg xmlns="http://www.w3.org/2000/svg" xmlns:xlink="http://www.w3.org/1999/xlink" width="1080" zoomAndPan="magnify" viewBox="0 0 810 809.999993" height="1080" preserveAspectRatio="xMidYMid meet" version="1.0"><defs><g/><clipPath id="8353769c08"><path d="M 49 49 L 761 49 L 761 761 L 49 761 Z M 49 49 " clip-rule="nonzero"/></clipPath><clipPath id="e981991a38"><path d="M 33.722656 405.148438 L 406.300781 32.566406 L 777.433594 403.699219 L 404.851562 776.277344 Z M 33.722656 405.148438 " clip-rule="nonzero"/></clipPath><clipPath id="7d33db2619"><path d="M 60.769531 378.101562 L 378.105469 60.761719 C 393.042969 45.824219 417.261719 45.824219 432.199219 60.761719 L 749.238281 377.800781 C 764.175781 392.738281 764.175781 416.957031 749.238281 431.894531 L 431.898438 749.230469 C 416.960938 764.167969 392.742188 764.167969 377.804688 749.230469 L 60.769531 432.195312 C 45.832031 417.257812 45.832031 393.039062 60.769531 378.101562 Z M 60.769531 378.101562 " clip-rule="nonzero"/></clipPath><clipPath id="7aad1a84f1"><path d="M 169.652344 169.652344 L 640.347656 169.652344 L 640.347656 640.347656 L 169.652344 640.347656 Z M 169.652344 169.652344 " clip-rule="nonzero"/></clipPath><clipPath id="6f36300e1f"><path d="M 405 169.652344 C 275.019531 169.652344 169.652344 275.019531 169.652344 405 C 169.652344 534.980469 275.019531 640.347656 405 640.347656 C 534.980469 640.347656 640.347656 534.980469 640.347656 405 C 640.347656 275.019531 534.980469 169.652344 405 169.652344 Z M 405 169.652344 " clip-rule="nonzero"/></clipPath><clipPath id="06a1744da9"><path d="M 195.761719 195.761719 L 614.238281 195.761719 L 614.238281 614.238281 L 195.761719 614.238281 Z M 195.761719 195.761719 " clip-rule="nonzero"/></clipPath><clipPath id="1354ec9f10"><path d="M 405 195.761719 C 289.441406 195.761719 195.761719 289.441406 195.761719 405 C 195.761719 520.558594 289.441406 614.238281 405 614.238281 C 520.558594 614.238281 614.238281 520.558594 614.238281 405 C 614.238281 289.441406 520.558594 195.761719 405 195.761719 Z M 405 195.761719 " clip-rule="nonzero"/></clipPath></defs><g clip-path="url(#8353769c08)"><g clip-path="url(#e981991a38)"><g clip-path="url(#7d33db2619)"><path fill="#840032" d="M 33.722656 405.148438 L 404.851562 34.015625 L 775.984375 405.148438 L 404.851562 776.277344 Z M 33.722656 405.148438 " fill-opacity="1" fill-rule="nonzero"/></g></g></g><g clip-path="url(#7aad1a84f1)"><g clip-path="url(#6f36300e1f)"><path fill="#ffffff" d="M 169.652344 169.652344 L 640.347656 169.652344 L 640.347656 640.347656 L 169.652344 640.347656 Z M 169.652344 169.652344 " fill-opacity="1" fill-rule="nonzero"/></g></g><g clip-path="url(#06a1744da9)"><g clip-path="url(#1354ec9f10)"><path fill="#840032" d="M 195.761719 195.761719 L 614.238281 195.761719 L 614.238281 614.238281 L 195.761719 614.238281 Z M 195.761719 195.761719 " fill-opacity="1" fill-rule="nonzero"/></g></g><g fill="#ffffff" fill-opacity="1"><g transform="translate(222.93358, 460.468576)"><g><path d="M 11.34375 -98.90625 C 16.9375 -101.425781 23.582031 -103.421875 31.28125 -104.890625 C 38.988281 -106.359375 47.039062 -107.09375 55.4375 -107.09375 C 62.71875 -107.09375 68.804688 -106.21875 73.703125 -104.46875 C 78.609375 -102.71875 82.492188 -100.234375 85.359375 -97.015625 C 88.234375 -93.796875 90.265625 -89.945312 91.453125 -85.46875 C 92.640625 -80.988281 93.234375 -75.945312 93.234375 -70.34375 C 93.234375 -64.1875 93.023438 -57.992188 92.609375 -51.765625 C 92.191406 -45.535156 91.945312 -39.410156 91.875 -33.390625 C 91.800781 -27.367188 91.972656 -21.519531 92.390625 -15.84375 C 92.816406 -10.175781 93.867188 -4.828125 95.546875 0.203125 L 73.296875 0.203125 L 68.875 -14.28125 L 67.828125 -14.28125 C 65.023438 -9.9375 61.140625 -6.1875 56.171875 -3.03125 C 51.203125 0.113281 44.796875 1.6875 36.953125 1.6875 C 32.054688 1.6875 27.644531 0.953125 23.71875 -0.515625 C 19.800781 -1.992188 16.441406 -4.097656 13.640625 -6.828125 C 10.847656 -9.554688 8.679688 -12.773438 7.140625 -16.484375 C 5.597656 -20.191406 4.828125 -24.359375 4.828125 -28.984375 C 4.828125 -35.421875 6.257812 -40.84375 9.125 -45.25 C 12 -49.664062 16.128906 -53.238281 21.515625 -55.96875 C 26.910156 -58.695312 33.351562 -60.582031 40.84375 -61.625 C 48.332031 -62.675781 56.695312 -62.992188 65.9375 -62.578125 C 66.914062 -70.421875 66.351562 -76.054688 64.25 -79.484375 C 62.15625 -82.910156 57.46875 -84.625 50.1875 -84.625 C 44.726562 -84.625 38.953125 -84.0625 32.859375 -82.9375 C 26.773438 -81.820312 21.769531 -80.359375 17.84375 -78.546875 Z M 45.984375 -20.796875 C 51.453125 -20.796875 55.796875 -22.019531 59.015625 -24.46875 C 62.234375 -26.914062 64.613281 -29.539062 66.15625 -32.34375 L 66.15625 -45.984375 C 61.8125 -46.410156 57.644531 -46.484375 53.65625 -46.203125 C 49.664062 -45.921875 46.128906 -45.289062 43.046875 -44.3125 C 39.972656 -43.332031 37.523438 -41.929688 35.703125 -40.109375 C 33.878906 -38.285156 32.96875 -35.976562 32.96875 -33.1875 C 32.96875 -29.257812 34.125 -26.210938 36.4375 -24.046875 C 38.75 -21.878906 41.929688 -20.796875 45.984375 -20.796875 Z M 45.984375 -20.796875 "/></g></g></g><g fill="#ffffff" fill-opacity="1"><g transform="translate(327.089665, 460.468576)"><g><path d="M 86.3125 -6.515625 C 82.113281 -3.429688 77.035156 -1.085938 71.078125 0.515625 C 65.128906 2.128906 59.003906 2.9375 52.703125 2.9375 C 44.304688 2.9375 37.203125 1.609375 31.390625 -1.046875 C 25.585938 -3.710938 20.863281 -7.457031 17.21875 -12.28125 C 13.582031 -17.113281 10.957031 -22.957031 9.34375 -29.8125 C 7.738281 -36.675781 6.9375 -44.238281 6.9375 -52.5 C 6.9375 -70.28125 10.925781 -83.960938 18.90625 -93.546875 C 26.882812 -103.140625 38.503906 -107.9375 53.765625 -107.9375 C 61.460938 -107.9375 67.65625 -107.304688 72.34375 -106.046875 C 77.03125 -104.785156 81.265625 -103.175781 85.046875 -101.21875 L 78.546875 -78.953125 C 75.316406 -80.492188 72.128906 -81.6875 68.984375 -82.53125 C 65.835938 -83.375 62.234375 -83.796875 58.171875 -83.796875 C 50.609375 -83.796875 44.863281 -81.304688 40.9375 -76.328125 C 37.019531 -71.359375 35.0625 -63.414062 35.0625 -52.5 C 35.0625 -48.019531 35.550781 -43.890625 36.53125 -40.109375 C 37.519531 -36.328125 38.992188 -33.035156 40.953125 -30.234375 C 42.910156 -27.441406 45.460938 -25.238281 48.609375 -23.625 C 51.765625 -22.007812 55.441406 -21.203125 59.640625 -21.203125 C 64.253906 -21.203125 68.171875 -21.796875 71.390625 -22.984375 C 74.617188 -24.179688 77.492188 -25.617188 80.015625 -27.296875 Z M 86.3125 -6.515625 "/></g></g></g><g fill="#ffffff" fill-opacity="1"><g transform="translate(418.016288, 460.468576)"><g><path d="M 71.609375 0 L 71.609375 -57.125 C 71.609375 -66.78125 70.695312 -73.640625 68.875 -77.703125 C 67.0625 -81.765625 63.285156 -83.796875 57.546875 -83.796875 C 52.785156 -83.796875 48.929688 -82.5 45.984375 -79.90625 C 43.046875 -77.3125 40.804688 -73.988281 39.265625 -69.9375 L 39.265625 0 L 11.96875 0 L 11.96875 -105 L 33.1875 -105 L 36.328125 -91.140625 L 37.171875 -91.140625 C 40.390625 -95.617188 44.484375 -99.535156 49.453125 -102.890625 C 54.421875 -106.253906 60.828125 -107.9375 68.671875 -107.9375 C 75.390625 -107.9375 80.882812 -106.570312 85.15625 -103.84375 C 89.425781 -101.113281 92.75 -96.53125 95.125 -90.09375 C 98.34375 -95.550781 102.472656 -99.890625 107.515625 -103.109375 C 112.554688 -106.328125 118.648438 -107.9375 125.796875 -107.9375 C 131.671875 -107.9375 136.671875 -107.234375 140.796875 -105.828125 C 144.929688 -104.429688 148.289062 -102.019531 150.875 -98.59375 C 153.46875 -95.164062 155.394531 -90.582031 156.65625 -84.84375 C 157.914062 -79.101562 158.546875 -71.820312 158.546875 -63 L 158.546875 0 L 131.25 0 L 131.25 -59.015625 C 131.25 -67.273438 130.375 -73.46875 128.625 -77.59375 C 126.875 -81.726562 122.988281 -83.796875 116.96875 -83.796875 C 112.070312 -83.796875 108.1875 -82.460938 105.3125 -79.796875 C 102.445312 -77.140625 100.3125 -73.5 98.90625 -68.875 L 98.90625 0 Z M 71.609375 0 "/></g></g></g></svg>